<svg width="762" height="132" viewBox="0 0 762 132" fill="none" xmlns="http://www.w3.org/2000/svg">
<path d="M467.13 51.2079C467.13 68.0644 481.25 78.5723 500.424 78.5723H564.912C565.928 78.4959 566.949 78.6398 567.904 78.9942C568.86 79.3485 569.727 79.905 570.448 80.6256C571.168 81.3461 571.725 82.2137 572.079 83.1691C572.434 84.1245 572.577 85.1452 572.501 86.1614V97.1071C572.577 98.1233 572.434 99.1439 572.079 100.099C571.725 101.055 571.168 101.922 570.448 102.643C569.727 103.363 568.86 103.92 567.904 104.274C566.949 104.629 565.928 104.773 564.912 104.696H474.008V131.878H565.478C569.91 131.988 574.319 131.196 578.435 129.55C582.552 127.904 586.291 125.438 589.425 122.302C592.56 119.165 595.024 115.425 596.668 111.307C598.312 107.189 599.102 102.78 598.989 98.3477V86.362C599.104 81.9313 598.317 77.5234 596.675 73.4066C595.032 69.2898 592.57 65.5501 589.437 62.4152C586.303 59.2803 582.566 56.8156 578.45 55.1712C574.334 53.5268 569.927 52.7369 565.496 52.8498H501.372C500.356 52.9262 499.335 52.7823 498.38 52.428C497.425 52.0736 496.557 51.5171 495.836 50.7966C495.116 50.076 494.559 49.2083 494.205 48.2529C493.851 47.2975 493.707 46.2769 493.783 45.2607V32.1806C493.722 31.5016 493.81 30.8174 494.042 30.1763C494.274 29.5352 494.645 28.953 495.127 28.4709C495.609 27.9888 496.191 27.6185 496.832 27.3863C497.473 27.1542 498.157 27.0658 498.836 27.1274H588.226V0.000231287H511.588C506.715 -0.0241554 502.031 1.88082 498.558 5.29896C495.085 8.71709 493.106 13.3706 493.053 18.2431V25.8321C493.058 25.9926 493.031 26.1526 492.975 26.3027C492.918 26.4529 492.832 26.5903 492.721 26.7072C492.611 26.8241 492.479 26.9182 492.333 26.984C492.186 27.0499 492.028 27.0861 491.868 27.0909H491.776C488.53 26.8775 485.275 27.3509 482.223 28.4802C479.172 29.6095 476.393 31.3693 474.067 33.6449C471.742 35.9206 469.922 38.6608 468.727 41.687C467.531 44.7132 466.987 47.9574 467.13 51.2079ZM436.902 52.9046H393.265V61.0774C393.241 65.7045 395.054 70.152 398.307 73.4427C401.56 76.7334 405.987 78.5981 410.614 78.627H421.286V99.6976C421.281 101.039 420.745 102.325 419.794 103.272C418.843 104.219 417.556 104.751 416.214 104.751H350.084C349.087 104.751 348.1 104.555 347.18 104.173C346.259 103.792 345.422 103.233 344.718 102.528C344.013 101.823 343.454 100.987 343.072 100.066C342.691 99.1453 342.495 98.1584 342.495 97.1618V34.7711C342.492 33.7754 342.686 32.7889 343.066 31.8683C343.445 30.9477 344.003 30.1109 344.706 29.406C345.409 28.7011 346.244 28.1417 347.164 27.7601C348.084 27.3785 349.07 27.1821 350.066 27.1821H421.103V0.000231287H348.132C343.82 0.000231287 339.55 0.849584 335.566 2.49981C331.582 4.15003 327.962 6.56882 324.912 9.61804C318.754 15.7762 315.295 24.1284 315.295 32.8374V99.1503C315.295 107.859 318.754 116.212 324.912 122.37C327.962 125.419 331.582 127.838 335.566 129.488C339.55 131.138 343.82 131.988 348.132 131.988H403.171C405.61 131.985 408.024 131.502 410.276 130.567C412.528 129.631 414.574 128.261 416.297 126.535C418.02 124.809 419.386 122.76 420.317 120.506C421.248 118.252 421.726 115.837 421.724 113.398V106.101C421.716 105.939 421.741 105.777 421.797 105.625C421.853 105.472 421.939 105.333 422.049 105.214C422.159 105.095 422.292 104.999 422.44 104.932C422.588 104.865 422.747 104.829 422.91 104.824C437.65 104.404 447.136 97.2348 447.136 84.7566V52.9046H436.902Z" fill="#EA580C"/>
<path d="M196.316 78.6817C177.142 78.6817 163.022 68.1738 163.022 51.3174C162.879 48.0669 163.423 44.8227 164.619 41.7965C165.814 38.7703 167.634 36.03 169.959 33.7544C172.285 31.4788 175.064 29.719 178.115 28.5897C181.167 27.4604 184.422 26.987 187.669 27.2003H187.76C187.92 27.1956 188.078 27.1593 188.225 27.0935C188.371 27.0276 188.503 26.9336 188.613 26.8167C188.724 26.6998 188.81 26.5624 188.867 26.4122C188.924 26.262 188.95 26.1021 188.945 25.9416V18.3526C188.998 13.4801 190.978 8.82658 194.45 5.40844C197.923 1.9903 202.608 0.0853258 207.48 0.109712H284.119V27.2368H194.729C194.049 27.1752 193.365 27.2636 192.724 27.4958C192.083 27.7279 191.501 28.0982 191.019 28.5804C190.537 29.0625 190.166 29.6447 189.934 30.2858C189.702 30.9268 189.614 31.6111 189.675 32.2901V45.3702C189.599 46.3864 189.743 47.407 190.097 48.3624C190.451 49.3178 191.008 50.1855 191.728 50.9061C192.449 51.6266 193.317 52.1831 194.272 52.5374C195.227 52.8918 196.248 53.0357 197.264 52.9593H261.388C265.819 52.8464 270.226 53.6362 274.342 55.2807C278.458 56.9251 282.196 59.3898 285.33 62.5247C288.463 65.6596 290.925 69.3993 292.568 73.5161C294.21 77.6329 294.997 82.0407 294.882 86.4715V98.4571C294.995 102.89 294.205 107.299 292.561 111.416C290.917 115.534 288.453 119.275 285.318 122.411C282.184 125.547 278.445 128.013 274.328 129.659C270.211 131.306 265.802 132.098 261.37 131.988H169.9V104.806H260.804C261.82 104.882 262.841 104.738 263.796 104.384C264.752 104.029 265.62 103.473 266.34 102.752C267.061 102.032 267.617 101.164 267.971 100.209C268.326 99.2534 268.47 98.2327 268.393 97.2166V86.2708C268.47 85.2547 268.326 84.234 267.971 83.2786C267.617 82.3232 267.061 81.4556 266.34 80.735C265.62 80.0145 264.752 79.458 263.796 79.1036C262.841 78.7492 261.82 78.6053 260.804 78.6817H196.316Z" fill="#EA580C"/>
</svg>
